<?xml version="1.0" encoding="UTF-8"?>
<!DOCTYPE svg PUBLIC "-//W3C//DTD SVG 1.1//EN" "http://www.w3.org/Graphics/SVG/1.1/DTD/svg11.dtd">
<svg xmlns="http://www.w3.org/2000/svg" version="1.1" width="331px" height="282px" style="shape-rendering:geometricPrecision; text-rendering:geometricPrecision; image-rendering:optimizeQuality; fill-rule:evenodd; clip-rule:evenodd" xmlns:xlink="http://www.w3.org/1999/xlink">
<g><path style="opacity:1" fill="#035ec8" d="M 5.5,1.5 C 110.834,1.33334 216.167,1.5 321.5,2C 322.499,94.0961 322.832,186.263 322.5,278.5C 322.389,279.117 322.056,279.617 321.5,280C 216.167,280.667 110.833,280.667 5.5,280C 4.94404,279.617 4.61071,279.117 4.5,278.5C 4.16934,186.096 4.50267,93.7628 5.5,1.5 Z M 81.5,59.5 C 81.9731,60.9063 82.9731,61.573 84.5,61.5C 97.5423,67.7711 110.376,74.4378 123,81.5C 123.831,87.8595 123.664,94.1928 122.5,100.5C 96.589,113.372 70.7557,126.372 45,139.5C 44.1694,133.141 44.3361,126.807 45.5,120.5C 65.1817,110.994 84.515,100.994 103.5,90.5C 84.3226,80.4111 64.9893,70.5778 45.5,61C 44.3567,54.5816 44.19,48.0816 45,41.5C 56.9884,47.911 69.155,53.911 81.5,59.5 Z M 163.5,120.5 C 196.5,120.5 229.5,120.5 262.5,120.5C 262.5,127.167 262.5,133.833 262.5,140.5C 229.5,140.5 196.5,140.5 163.5,140.5C 163.5,133.833 163.5,127.167 163.5,120.5 Z"/></g>
<g><path style="opacity:0.863" fill="#2773d0" d="M 5.5,1.5 C 4.50267,93.7628 4.16934,186.096 4.5,278.5C 3.83334,232.501 3.50001,186.335 3.5,140C 3.50006,93.4951 4.16673,47.3285 5.5,1.5 Z"/></g>
<g><path style="opacity:0.745" fill="#3f84d4" d="M 5.5,1.5 C 110.999,0.334123 216.666,0.167456 322.5,1C 323.833,93.5976 323.833,186.098 322.5,278.5C 322.832,186.263 322.499,94.0961 321.5,2C 216.167,1.5 110.834,1.33334 5.5,1.5 Z"/></g>
<g><path style="opacity:0.314" fill="#acc5eb" d="M 81.5,59.5 C 83.0269,59.427 84.0269,60.0937 84.5,61.5C 82.9731,61.573 81.9731,60.9063 81.5,59.5 Z"/></g>
</svg>
